PathFileType	4	(x/y/z)	S08_M20_T15
DataRate	CameraRate	NumFrames	NumMarkers	Units	OrigDataRate	OrigDataStartFrame	OrigNumFrames
240	240	4	51	mm	240	191	509
Frame#	Time	Sternum			R.Acromium			L.Acromium			Top.Head			R.ASIS			L.ASIS			R.PSIS			L.PSIS			R.Great.Tro			L.Great.Tro			R.Iliac.Crest			L.Iliac.Crest			V.Sacral			R.Thigh.Upper.Post			R.Thigh.Lower.Ant			R.Thigh.Lower.Post			R.Thigh.Upper.Ant			R.Knee.Lat			R.Knee.Med			R.Shank.Upper.Post			R.Shank.Lower.Ant			R.Shank.Lower.Post			R.Shank.Upper.Ant			R.Ankle.Lat			R.Ankle.Med			R.Heel.Upper			R.Heel.Med			R.Heel.Lat			R.Toe.Lat			R.Toe.Med			R.Toe.Tip			L.Thigh.Upper.Post			L.Thigh.Lower.Ant			L.Thigh.Lower.Post			L.Thigh.Upper.Ant			L.Knee.Lat			L.Knee.Med			L.Shank.Upper.Post			L.Shank.Lower.Ant			L.Shank.Lower.Post			L.Shank.Upper.Ant			L.Ankle.Lat			L.Ankle.Med			L.Heel.Upper			L.Heel.Med			L.Heel.Lat			L.Toe.Lat			L.Toe.Med			L.Toe.Tip			Cervical.Spine			Back			
		X1	Y1	Z1	X2	Y2	Z2	X3	Y3	Z3	X4	Y4	Z4	X5	Y5	Z5	X6	Y6	Z6	X7	Y7	Z7	X8	Y8	Z8	X9	Y9	Z9	X10	Y10	Z10	X11	Y11	Z11	X12	Y12	Z12	X13	Y13	Z13	X14	Y14	Z14	X15	Y15	Z15	X16	Y16	Z16	X17	Y17	Z17	X18	Y18	Z18	X19	Y19	Z19	X20	Y20	Z20	X21	Y21	Z21	X22	Y22	Z22	X23	Y23	Z23	X24	Y24	Z24	X25	Y25	Z25	X26	Y26	Z26	X27	Y27	Z27	X28	Y28	Z28	X29	Y29	Z29	X30	Y30	Z30	X31	Y31	Z31	X32	Y32	Z32	X33	Y33	Z33	X34	Y34	Z34	X35	Y35	Z35	X36	Y36	Z36	X37	Y37	Z37	X38	Y38	Z38	X39	Y39	Z39	X40	Y40	Z40	X41	Y41	Z41	X42	Y42	Z42	X43	Y43	Z43	X44	Y44	Z44	X45	Y45	Z45	X46	Y46	Z46	X47	Y47	Z47	X48	Y48	Z48	X49	Y49	Z49	X50	Y50	Z50	X51	Y51	Z51	

191	0.79167	-571.79	1209.4	343.02	-704.79	1428.2	527.64	-717.45	1470.6	193.57	-708.67	1755.2	383.39	-573.88	999.32	448.9	-577.95	983	216.59	-778.8	1015.8	376.12	-774.12	1016.6	283.96	-623.88	895.78	525.14	-686.3	875.85	156.67	-674.19	1064.9	496.06	-674.84	1064.6	185.14	-794.49	976.29	331.29	-572.59	697.28	509.07	-471.04	631.42	462.23	-537.67	615.68	485.33	-500.31	719.88	485.38	-472.92	528.79	456.37	-516.5	521.67	337.54	-514.77	336.29	473.77	-452.51	279.92	442.32	-509.55	259.49	465.74	-457.09	357.22	451.84	-503.37	91.935	427.32	-480.14	113.35	347.49	-551.3	62.92	376.41	-535.91	37.806	347.94	-543.83	36.923	409.63	NaN	NaN	NaN	-353.61	58.547	335.39	-293.8	86.374	382.15	-747.29	678.37	173.94	-674.16	574.61	179.01	-743.97	587.23	184.23	-677.4	662.17	165.17	-754.24	492.04	192.36	-735.46	475.38	316.2	-918.38	413.5	190.6	-941.38	303.78	201.2	-975.51	367.11	204.98	-884.88	357.52	189.35	-1088.3	236.74	207.26	-1067.8	215.99	292.75	-1127	272.67	263.43	-1151.6	247.21	293.69	-1151	259.04	230.61	-1100	94.55	187.84	-1083	75.303	301.68	-1043.6	34.87	252.14	-779.35	1491.6	355.68	-810.13	1202.6	347.78
192	0.79583	-566.47	1210.1	343.59	-699.34	1429.1	527.95	-711.81	1471.4	193.89	-703.41	1755.9	383.88	-568.56	1000.2	449.7	-572.54	983.74	217.41	-773.5	1016.4	376.68	-768.76	1017.1	284.52	-618.61	896.29	525.88	-680.41	876.07	157.55	-669.02	1065.6	496.68	-669.4	1065.2	185.77	-789.12	976.74	331.89	-568.23	697.51	509.48	-467	631.12	462.68	-533.77	615.75	485.63	-495.79	719.68	485.86	-469.35	528.57	456.56	-513.08	521.86	337.73	-512.46	336.41	473.81	-450.61	279.6	442.27	-507.77	259.58	465.74	-454.64	356.96	451.86	-502.89	92.075	427.21	-479.62	113.29	347.4	-551.09	63.083	376.4	-535.81	37.913	347.93	-543.69	37.102	409.63	NaN	NaN	NaN	-353.42	57.695	335.15	-293.33	85.232	381.75	-739.14	677.7	174.26	-664.95	574.67	179.29	-734.87	586.56	184.38	-669.06	662.25	165.63	-743.95	491.58	192.27	-725.37	474.82	316.31	-908.21	414.47	190.15	-932.46	304.94	200.88	-965.76	368.63	204.45	-875.21	358.19	189.1	-1079.8	239.67	206.57	-1059.6	218.62	292.26	-1117.3	276.68	262.71	-1142.5	251.9	293.12	-1141.8	263.58	230.01	-1094.7	97.46	187.67	-1078.1	77.955	301.41	-1040	35.177	251.8	-773.85	1492.3	355.94	-804.74	1203.4	348.19
193	0.8	-561.2	1210.9	344.13	-693.9	1430.1	528.25	-706.2	1472.2	194.2	-698.16	1756.6	384.34	-563.27	1001	450.45	-567.18	984.51	218.18	-768.23	1016.9	377.3	-763.49	1017.5	285.13	-613.35	896.77	526.62	-674.58	876.33	158.42	-663.85	1066.3	497.3	-664.06	1065.7	186.42	-783.81	977.2	332.53	-564	697.72	509.84	-463.11	630.76	463.1	-530.03	615.79	485.88	-491.38	719.43	486.31	-465.94	528.33	456.74	-509.81	522	337.9	-510.3	336.51	473.8	-448.82	279.28	442.18	-506.11	259.67	465.7	-452.33	356.69	451.87	-502.45	92.214	427.07	-479.14	113.22	347.29	-550.91	63.228	376.37	-535.73	38.001	347.91	-543.57	37.273	409.63	NaN	NaN	NaN	-353.24	56.876	334.91	-292.9	84.145	381.34	-730.94	677.08	174.55	-655.71	574.8	179.59	-725.71	585.97	184.51	-660.67	662.38	166.07	-733.6	491.19	192.19	-715.27	474.35	316.45	-897.93	415.42	189.7	-923.39	306.12	200.59	-955.89	370.14	203.92	-865.43	358.86	188.87	-1071.1	242.55	205.93	-1051.1	221.22	291.79	-1107.6	280.54	262.04	-1133.3	256.4	292.61	-1132.5	267.94	229.46	-1089.1	100.37	187.5	-1072.8	80.622	301.13	-1036	35.683	251.42	-768.38	1493.1	356.2	-799.4	1204.3	348.62
194	0.80417	-555.97	1211.7	344.64	-688.47	1431	528.54	-700.64	1472.9	194.49	-692.9	1757.3	384.78	-558	1001.8	451.15	-561.89	985.3	218.89	-763.01	1017.5	377.97	-758.29	1018	285.78	-608.11	897.21	527.33	-668.82	876.61	159.28	-658.65	1067	497.92	-658.84	1066.3	187.08	-778.55	977.66	333.22	-559.88	697.91	510.14	-459.34	630.36	463.49	-526.43	615.8	486.1	-487.09	719.14	486.73	-462.67	528.06	456.89	-506.7	522.11	338.05	-508.27	336.61	473.74	-447.15	278.95	442.08	-504.57	259.75	465.62	-450.16	356.42	451.87	-502.03	92.353	426.91	-478.69	113.16	347.16	-550.74	63.358	376.33	-535.66	38.07	347.89	-543.45	37.437	409.61	NaN	NaN	NaN	-353.08	56.091	334.67	-292.49	83.111	380.93	-722.69	676.51	174.81	-646.43	575	179.9	-716.47	585.45	184.61	-652.23	662.58	166.49	-723.2	490.87	192.13	-705.14	473.97	316.59	-887.55	416.36	189.24	-914.17	307.31	200.33	-945.91	371.63	203.4	-855.55	359.54	188.67	-1062.3	245.37	205.34	-1042.5	223.79	291.34	-1097.8	284.24	261.42	-1124	260.68	292.14	-1123	272.1	228.95	-1083.1	103.28	187.33	-1067.1	83.292	300.84	-1031.4	36.4	251.02	-762.93	1493.9	356.46	-794.1	1205.1	349.09
